<svg width="153" height="33" viewBox="0 0 153 33" fill="none" xmlns="http://www.w3.org/2000/svg">
<g clip-path="url(#clip0_28_692)">
<path d="M28.1436 5.58813C29.5854 5.58813 30.7543 4.41725 30.7543 2.9729C30.7543 1.52855 29.5854 0.357666 28.1436 0.357666C26.7017 0.357666 25.5328 1.52855 25.5328 2.9729C25.5328 4.41725 26.7017 5.58813 28.1436 5.58813Z" fill="#FACC15"/>
<path d="M20.1052 22.2851C19.0126 22.2851 18.1237 23.156 18.0923 24.2413C18.0923 24.2622 18.0923 24.2818 18.0923 24.3027C18.0923 24.3237 18.0923 24.3433 18.0923 24.3642C18.0819 25.0769 17.8861 25.7437 17.5519 26.3204C16.8562 27.5208 15.5586 28.3289 14.0731 28.3289C12.5876 28.3289 11.2888 27.5208 10.5943 26.3204C10.2693 25.7607 10.0761 25.1148 10.0552 24.4257C10.0539 24.3851 10.0526 24.3433 10.0526 24.3014C10.0526 24.2596 10.0526 24.2191 10.0552 24.1772C9.99127 23.1207 9.11537 22.2838 8.04497 22.2838C6.97458 22.2838 6.09607 23.122 6.03341 24.1798C6.0321 24.2204 6.0321 24.2609 6.0321 24.3014C6.0321 24.342 6.0321 24.3825 6.03341 24.423C6.04255 25.0769 6.13001 25.7124 6.28665 26.3204C7.18082 29.7921 10.328 32.3564 14.0731 32.3564C17.8182 32.3564 20.9654 29.7921 21.8596 26.3204C22.011 25.732 22.0985 25.1174 22.1115 24.4832C22.1129 24.423 22.1142 24.3629 22.1142 24.3014C22.1142 24.24 22.1142 24.1798 22.1115 24.1197C22.0202 23.0906 21.1573 22.2838 20.1065 22.2838L20.1052 22.2851Z" fill="#F8FAFC"/>
<path d="M24.1231 5.24685C22.9404 4.56166 21.5672 4.16937 20.1026 4.16937C18.638 4.16937 17.2647 4.56166 16.0821 5.24685C15.3249 5.6849 14.6462 6.24456 14.0718 6.89706C13.4974 6.24325 12.8187 5.6849 12.0615 5.24685C10.8789 4.56166 9.50564 4.16937 8.04103 4.16937H0V12.2243C0 15.1207 1.52597 17.6587 3.81427 19.0775C3.81557 19.0775 3.81688 19.0788 3.81949 19.0801C3.88345 19.1194 3.95133 19.1547 4.02051 19.186C4.27636 19.305 4.56224 19.3704 4.86247 19.3704C5.97594 19.3704 6.87664 18.4669 6.87664 17.3528C6.87664 16.6807 6.549 16.087 6.04643 15.7196C5.96028 15.6699 5.87543 15.6176 5.7945 15.5626C5.7945 15.5626 5.7945 15.5626 5.79319 15.5626C4.7241 14.8382 4.02182 13.613 4.02182 12.2243C4.02182 10 5.82191 8.19683 8.04233 8.19683C10.2628 8.19683 12.0628 10 12.0628 12.2243V21.205C12.1268 22.2616 13.0027 23.0984 14.0731 23.0984C15.1435 23.0984 16.0194 22.2603 16.0834 21.205V12.2243C16.0834 10 17.8835 8.19683 20.1039 8.19683C22.3243 8.19683 24.1244 10 24.1244 12.2243V21.0808C24.1244 22.1949 25.0264 23.0984 26.1386 23.0984C27.1894 23.0984 28.0509 22.2943 28.1449 21.2665V12.2243C28.1449 9.24293 26.5276 6.63946 24.1244 5.24685H24.1231Z" fill="#F8FAFC"/>
<path d="M38.0448 24.5904C33.6627 24.5904 30.4789 21.5371 30.4789 16.7931C30.4789 12.0491 33.5817 8.99579 38.0448 8.99579C42.5078 8.99579 45.4749 11.968 45.4749 16.4662C45.4749 16.9566 45.4475 17.4482 45.3665 17.9386H34.3441C34.5346 20.1746 36.0593 21.4286 37.9638 21.4286C39.5968 21.4286 40.4949 20.6113 40.9844 19.6019H45.0937C44.2766 22.3832 41.7729 24.5917 38.0448 24.5917V24.5904ZM34.3702 15.3757H41.5288C41.4739 13.3855 39.8958 12.1315 37.9364 12.1315C36.1128 12.1315 34.6704 13.3044 34.3715 15.3757H34.3702Z" fill="#F8FAFC"/>
<path d="M47.5438 4.16937H51.3542V11.122C52.3345 9.84051 54.021 9.02325 56.0352 9.02325C59.437 9.02325 61.9145 11.3142 61.9145 15.4842V24.3446H58.1042V16.002C58.1042 13.5751 56.7701 12.2674 54.7559 12.2674C52.7418 12.2674 51.3542 13.5764 51.3542 16.002V24.3446H47.5438V4.16937Z" fill="#F8FAFC"/>
<path d="M71.4138 24.5904C67.0317 24.5904 63.8479 21.5371 63.8479 16.7931C63.8479 12.0491 66.9507 8.99579 71.4138 8.99579C75.8768 8.99579 78.8439 11.968 78.8439 16.4662C78.8439 16.9566 78.8165 17.4482 78.7355 17.9386H67.7131C67.9037 20.1746 69.4283 21.4286 71.3328 21.4286C72.9659 21.4286 73.8639 20.6113 74.3534 19.6019H78.4627C77.6456 22.3832 75.1419 24.5917 71.4138 24.5917V24.5904ZM67.7392 15.3757H74.8978C74.843 13.3855 73.2648 12.1315 71.3054 12.1315C69.4818 12.1315 68.0394 13.3044 67.7405 15.3757H67.7392Z" fill="#F8FAFC"/>
<path d="M86.847 8.99448C88.8338 8.99448 90.7383 9.92158 91.7735 11.339V4.16937H95.6386V24.3446H91.7735V22.1086C90.8754 23.4986 89.1875 24.5891 86.8196 24.5891C82.9819 24.5891 79.9338 21.4535 79.9338 16.7369C79.9338 12.0203 82.9819 8.99448 86.847 8.99448ZM87.7999 12.3485C85.7584 12.3485 83.8264 13.8758 83.8264 16.7382C83.8264 19.6006 85.7597 21.2364 87.7999 21.2364C89.8402 21.2364 91.8009 19.6555 91.8009 16.7931C91.8009 13.9307 89.8964 12.3485 87.7999 12.3485Z" fill="#F8FAFC"/>
<path d="M98.252 5.20499C98.252 3.95098 99.231 2.96896 100.592 2.96896C101.954 2.96896 102.933 3.94968 102.933 5.20499C102.933 6.4603 101.925 7.44101 100.592 7.44101C99.2597 7.44101 98.252 6.4603 98.252 5.20499ZM98.6605 9.24029H102.471V24.3446H98.6605V9.24029Z" fill="#F8FAFC"/>
<path d="M105.519 4.16937H109.329V11.122C110.31 9.84051 111.996 9.02325 114.01 9.02325C117.412 9.02325 119.89 11.3142 119.89 15.4842V24.3446H116.079V16.002C116.079 13.5751 114.745 12.2674 112.731 12.2674C110.717 12.2674 109.329 13.5764 109.329 16.002V24.3446H105.519V4.16937Z" fill="#F8FAFC"/>
<path d="M128.709 8.99448C131.131 8.99448 132.792 10.1399 133.69 11.394V9.24031H137.528V24.3446H133.69V22.136C132.792 23.445 131.077 24.5891 128.683 24.5891C124.872 24.5891 121.824 21.4535 121.824 16.7369C121.824 12.0203 124.872 8.99448 128.71 8.99448H128.709ZM129.689 12.3485C127.647 12.3485 125.716 13.8758 125.716 16.7382C125.716 19.6006 127.647 21.2364 129.689 21.2364C131.731 21.2364 133.69 19.6555 133.69 16.7931C133.69 13.9307 131.785 12.3485 129.689 12.3485Z" fill="#F8FAFC"/>
<path d="M146.318 24.5904C142.535 24.5904 139.896 22.3819 139.731 19.5744H143.569C143.705 20.7199 144.766 21.5921 146.291 21.5921C147.815 21.5921 148.604 20.9108 148.604 20.0386C148.604 17.3397 140.085 19.0566 140.085 13.5228C140.085 11.0148 142.317 8.9971 146.045 8.9971C149.773 8.9971 151.897 10.9873 152.115 13.987H148.468C148.36 12.814 147.434 12.0242 145.937 12.0242C144.522 12.0242 143.787 12.597 143.787 13.4692C143.787 16.223 152.142 14.5048 152.251 20.0399C152.251 22.6303 149.991 24.593 146.318 24.593V24.5904Z" fill="#F8FAFC"/>
</g>
<defs>
<clipPath id="clip0_28_692">
<rect width="152.252" height="32" fill="white" transform="translate(0 0.357666)"/>
</clipPath>
</defs>
</svg>
